<svg width="40" height="40" viewBox="0 0 40 40" fill="none" xmlns="http://www.w3.org/2000/svg">
<circle cx="19.5" cy="19.4999" r="9.5" fill="#1E1E1E"/>
<path d="M35.2671 16.5999C34.3166 15.6673 33.6672 14.9495 33.3335 14.5996C33.283 14.0332 33.2 12.8336 33.2 11.5999C33.2 8.96643 31.0337 6.80009 28.4002 6.80009C27.0672 6.80009 26.1004 6.76591 25.617 6.74964C25.1662 6.38342 24.2661 5.60055 23.4002 4.73303C21.5838 2.9329 18.4165 2.9329 16.6001 4.73303C15.6667 5.68355 14.9505 6.33297 14.5998 6.66663C14.0334 6.71708 12.8338 6.80009 11.6001 6.80009C8.96664 6.80009 6.80029 8.96643 6.80029 11.5999C6.80029 12.9329 6.7832 13.8997 6.74984 14.3831C6.38363 14.8339 5.59994 15.734 4.73324 16.5999C3.83317 17.5 3.3335 18.7174 3.3335 20C3.3335 21.2825 3.83317 22.5 4.73324 23.4C5.68376 24.3327 6.33317 25.0504 6.65055 25.4004C6.71647 25.9668 6.80029 27.1663 6.80029 28.4C6.80029 31.0335 8.96664 33.1998 11.6001 33.1998C12.9331 33.1998 13.8999 33.2161 14.3833 33.2503C14.8333 33.6165 15.7334 34.3994 16.6001 35.2669C17.5002 36.167 18.7168 36.6666 20.0002 36.6666C21.2835 36.6666 22.5002 36.167 23.4002 35.2669C24.3328 34.3164 25.0506 33.667 25.4006 33.3333C25.967 33.2829 27.1665 33.1998 28.4002 33.1998C31.0337 33.1998 33.2 31.0335 33.2 28.4C33.2 27.067 33.2342 26.1002 33.2505 25.6168C33.6167 25.166 34.3996 24.2659 35.2671 23.4C36.1672 22.5 36.6668 21.2825 36.6668 20C36.6668 18.7174 36.1672 17.5 35.2671 16.5999ZM27.0168 17.0166L18.6834 25.3499C18.3498 25.6673 17.9331 25.8333 17.5002 25.8333C17.0672 25.8333 16.6506 25.6673 16.3169 25.3499L12.9836 22.0166C12.3333 21.3672 12.3333 20.2994 12.9836 19.65C13.6338 19.0006 14.6999 19.0006 15.3501 19.65L17.5002 21.8164L24.6502 14.65C25.2996 14.0006 26.3674 14.0006 27.0168 14.65C27.6662 15.2994 27.6662 16.3672 27.0168 17.0166Z" fill="#F5CB35"/>
</svg>
