<svg width="138" height="24" viewBox="0 0 138 24" fill="none" xmlns="http://www.w3.org/2000/svg">
<path d="M17.7341 0.0239258C26.478 0.0239258 34.2172 2.7344 34.2172 11.9993C34.2172 21.2642 26.5052 23.9747 17.7341 23.9747H10.1035V0.0239258H17.7341ZM17.8699 5.07527H16.4307V18.948H17.8699C22.5134 18.948 27.5371 18.4305 27.5371 12.024C27.5371 5.56809 22.5134 5.07527 17.8699 5.07527Z" fill="#1E1E1E"/>
<path d="M44.7537 0.0244141H51.6782L61.8342 23.9998H54.9368L53.2532 19.6631H43.0157L41.3321 23.9998H34.5977L44.7537 0.0244141ZM44.998 14.6364H51.3252L48.1752 6.431L44.998 14.6364Z" fill="#1E1E1E"/>
<path d="M70.4148 5.07576H61.8066V0.0244141H85.3501V5.07576H76.7148V23.9998H70.3876V5.07576H70.4148Z" fill="#1E1E1E"/>
<path d="M88.0098 0.0244141H108.593V5.07576H94.3369V9.16612H107.779V14.2175H94.3369V18.9485H108.593V23.9998H88.0098V0.0244141Z" fill="#1E1E1E"/>
<path d="M119.754 11.7783L110.114 0H117.582L123.475 7.21973L129.449 0H136.781L127.141 11.7043L137.215 23.9754H129.802L123.393 16.2136L116.985 23.9754H109.707L119.754 11.7783Z" fill="#1E1E1E"/>
<path d="M6.76161 17.8647H0V24.0003H6.76161V17.8647Z" fill="#DF2D2D"/>
<path d="M6.76161 8.94434H0V15.0799H6.76161V8.94434Z" fill="#1E1E1E"/>
<path d="M6.76161 0.0239258H0V6.15946H6.76161V0.0239258Z" fill="#1E1E1E"/>
</svg>
