<svg width="90" height="90" viewBox="0 0 90 90" fill="none" xmlns="http://www.w3.org/2000/svg">
<path d="M45 90C44.8888 90 44.7775 89.9897 44.6677 89.9684C34.0034 87.9174 24.321 82.177 17.4044 73.8041C10.4885 65.4311 6.67969 54.8389 6.67969 43.979V13.2138C6.67969 12.4454 7.17888 11.7657 7.91222 11.5363L44.4191 0.098877C44.6038 0.0343322 44.8064 0.00411987 45 0H45.0021C45.2012 0 45.3969 0.0343322 45.5816 0.098877L82.0878 11.5363C82.8211 11.7664 83.3203 12.4454 83.3203 13.2138V43.979C83.3203 54.8389 79.5115 65.4311 72.5949 73.8041C65.679 82.177 55.9966 87.9174 45.3323 89.9684C45.2225 89.9897 45.1112 90 45 90ZM10.1953 14.5047V43.979C10.1953 64.5989 24.8119 82.4064 45 86.4507C65.1881 82.4064 79.804 64.5989 79.804 43.979V14.5047L45 3.60077L10.1953 14.5047Z" fill="#DF2D2D"/>
<path d="M45 79.9235C44.8572 79.9235 44.7144 79.9063 44.5757 79.872C36.6394 77.8972 29.4784 73.25 24.4102 66.7866C19.3243 60.2991 16.5234 52.1995 16.5234 43.979V20.4449C16.5234 19.6765 17.0226 18.9974 17.7553 18.7681L44.474 10.3972C44.816 10.2901 45.1833 10.2901 45.5253 10.3972L72.244 18.7681C72.9767 18.9974 73.4759 19.6765 73.4759 20.4449V43.979C73.4759 49.9878 71.9872 55.9692 69.1713 61.2762C68.716 62.1339 67.6524 62.4593 66.7948 62.0048C65.9372 61.5495 65.611 60.4859 66.0656 59.6283C68.6137 54.8273 69.9603 49.4158 69.9603 43.979V21.7365L44.9993 13.9162L20.0391 21.7365V43.979C20.0391 59.2383 30.2811 72.4878 44.9993 76.3515C49.0883 75.2783 52.8875 73.4621 56.2988 70.9497C57.0802 70.3743 58.1808 70.5412 58.7563 71.3226C59.3324 72.104 59.1655 73.2047 58.3834 73.7801C54.4826 76.6537 50.1224 78.7026 45.4237 79.872C45.285 79.9063 45.1421 79.9235 45 79.9235Z" fill="#F5CB35"/>
<path d="M41.8073 58.2289C41.3569 58.2289 40.9078 58.0573 40.5645 57.7139L28.7933 45.9428C28.1067 45.2568 28.1067 44.1438 28.7933 43.4571L34.7596 37.4908C35.0892 37.1613 35.5362 36.9759 36.0024 36.9759C36.4686 36.9759 36.9156 37.1613 37.2452 37.4908L41.8073 42.0529L52.7545 31.105C53.4411 30.4191 54.5542 30.4184 55.2408 31.105L61.2071 37.0713C61.5367 37.4009 61.7221 37.8479 61.7221 38.3141C61.7221 38.7804 61.5367 39.2274 61.2071 39.557L43.0501 57.7139C42.7068 58.0573 42.257 58.2289 41.8073 58.2289ZM32.5218 44.6999L41.8073 53.9848L57.4779 38.3141L53.9973 34.8342L43.0501 45.7821C42.7205 46.1117 42.2735 46.2964 41.8073 46.2964C41.3411 46.2964 40.8941 46.1117 40.5645 45.7821L36.0024 41.22L32.5218 44.6999Z" fill="#DF2D2D"/>
<path d="M63.144 68.7483C62.6819 68.7483 62.2281 68.5616 61.9012 68.2333C61.5744 67.9065 61.3862 67.4526 61.3862 66.9905C61.3862 66.5284 61.5744 66.0745 61.9012 65.7477C62.2281 65.4208 62.6819 65.2327 63.144 65.2327C63.6062 65.2327 64.06 65.4208 64.3869 65.7477C64.7137 66.0745 64.9019 66.5284 64.9019 66.9905C64.9019 67.4526 64.7137 67.9065 64.3869 68.2333C64.06 68.5616 63.6062 68.7483 63.144 68.7483Z" fill="#F5CB35"/>
</svg>
