<svg width="90" height="90" viewBox="0 0 90 90" fill="none" xmlns="http://www.w3.org/2000/svg">
<g clip-path="url(#clip0_2_502)">
<path d="M15.8292 69.6004C14.5692 69.6004 13.358 69.9149 12.2834 70.5054C6.6227 63.249 3.51562 54.2347 3.51562 45C3.51562 22.1251 22.1251 3.51562 45 3.51562C47.7809 3.51562 50.5605 3.79234 53.2617 4.33823C54.212 4.53049 55.1404 3.91525 55.3326 2.96356C55.5249 2.01187 54.9097 1.0849 53.958 0.891953C51.0281 0.300064 48.0144 0 45 0C32.9803 0 21.6795 4.68086 13.1802 13.1802C4.68086 21.6795 0 32.9803 0 45C0 55.1109 3.43323 64.978 9.68376 72.8881C8.87901 74.0904 8.44643 75.5035 8.44643 76.9833C8.44643 78.9553 9.21478 80.8092 10.6094 82.2031C12.0033 83.5977 13.8572 84.3661 15.8292 84.3661C17.8013 84.3661 19.6552 83.5977 21.0498 82.2031C22.4444 80.8092 23.2121 78.9546 23.2121 76.9826C23.2121 75.0112 22.4444 73.1566 21.0498 71.7627C19.6552 70.3681 17.8013 69.6004 15.8292 69.6004ZM18.5635 79.7175C17.8336 80.4481 16.862 80.8504 15.8292 80.8504C14.7965 80.8504 13.8256 80.4481 13.095 79.7175C12.3644 78.9869 11.9621 78.016 11.9621 76.9833C11.9621 75.9499 12.3644 74.9789 13.095 74.2484C13.8249 73.5178 14.7965 73.1161 15.8292 73.1161C16.862 73.1161 17.8329 73.5184 18.5635 74.2484C19.2941 74.9789 19.6964 75.9499 19.6964 76.9833C19.6964 78.016 19.2941 78.9869 18.5635 79.7175Z" fill="#DF2D2D"/>
<path d="M80.3148 17.1098C82.2257 14.2431 81.9188 10.3237 79.3912 7.79617C77.9967 6.40228 76.1427 5.63393 74.1707 5.63393C72.1986 5.63393 70.3447 6.40228 68.9501 7.79617C67.5555 9.19075 66.7879 11.0447 66.7879 13.0167C66.7879 14.9888 67.5555 16.8427 68.9501 18.2373C70.3447 19.6319 72.1986 20.3996 74.1707 20.3996C75.4307 20.3996 76.6419 20.0851 77.7165 19.4946C83.3772 26.7517 86.4843 35.7653 86.4843 45C86.4843 67.8749 67.8748 86.4844 44.9999 86.4844C42.2465 86.4844 39.493 86.2132 36.8171 85.6776C35.8655 85.4874 34.9392 86.1047 34.7483 87.0564C34.5581 88.0087 35.1754 88.9343 36.1271 89.1252C39.0295 89.7054 42.0151 90 44.9999 90C57.0196 90 68.3204 85.3191 76.8198 76.8198C85.319 68.3205 89.9999 57.0197 89.9999 45C89.9999 34.8885 86.566 25.0207 80.3148 17.1098ZM71.4364 15.7516C70.7059 15.0211 70.3035 14.0501 70.3035 13.0167C70.3035 11.984 70.7059 11.0131 71.4364 10.2825C72.1664 9.55193 73.138 9.14955 74.1707 9.14955C75.2034 9.14955 76.175 9.55193 76.9056 10.2825C78.4128 11.7904 78.4128 14.2438 76.9056 15.7516C76.175 16.4816 75.2034 16.8839 74.1707 16.8839C73.1373 16.8839 72.1664 16.4816 71.4364 15.7516Z" fill="#DF2D2D"/>
<path d="M37.7461 75.2344C37.7461 76.2053 38.5337 76.9922 39.5039 76.9922H50.495C51.466 76.9922 52.2529 76.2053 52.2529 75.2344V71.8266C54.5641 71.2045 56.7737 70.2885 58.8501 69.0923L61.2561 71.4983C61.5857 71.8279 62.0327 72.0133 62.4997 72.0133C62.9652 72.0133 63.4129 71.8279 63.7425 71.4977L71.5112 63.7234C72.1972 63.0368 72.1972 61.9238 71.5112 61.2378L69.1079 58.8345C70.3041 56.7581 71.2201 54.5485 71.8422 52.2372H75.2369C76.2079 52.2372 76.9947 51.4503 76.9947 50.4794V39.4883C76.9947 38.5174 76.2079 37.7305 75.2369 37.7305H71.8415C71.2194 35.4199 70.3041 33.2103 69.1079 31.1339L71.4981 28.7437C71.8277 28.4141 72.0131 27.9664 72.0131 27.5002C72.0124 27.0339 71.8271 26.5862 71.4975 26.2566L63.7226 18.4879C63.0366 17.802 61.9236 17.802 61.2369 18.4886L58.8501 20.8761C56.7737 19.6799 54.5641 18.764 52.2529 18.1419V14.7656C52.2529 13.7947 51.466 13.0078 50.495 13.0078H39.5039C38.5337 13.0078 37.7461 13.7947 37.7461 14.7656V18.1425C35.4355 18.764 33.2259 19.6799 31.1495 20.8761L28.762 18.4886C28.0761 17.8027 26.963 17.802 26.2764 18.4879L18.5022 26.2573C18.1719 26.5869 17.9865 27.0339 17.9865 27.5002C17.9865 27.9664 18.1719 28.4141 18.5015 28.7437L20.8917 31.1339C19.6956 33.2103 18.7796 35.4192 18.1575 37.7305H14.7689C13.798 37.7305 13.0111 38.5174 13.0111 39.4876L13.0049 50.4787C13.0042 50.945 13.1896 51.3927 13.5192 51.7223C13.8488 52.0518 14.2958 52.2372 14.7627 52.2372H18.1575C18.7796 54.5485 19.6956 56.7581 20.8917 58.8345L18.4884 61.2378C17.8025 61.9238 17.8018 63.0368 18.4884 63.7234L26.2571 71.4977C26.5867 71.8272 27.0337 72.0133 27.5 72.0133H27.5007C27.9669 72.0133 28.4139 71.8279 28.7435 71.4983L31.1488 69.0923C33.2259 70.2885 35.4355 71.2045 37.7461 71.8266V75.2344ZM31.8382 65.3954C31.1426 64.9457 30.2273 65.0432 29.6409 65.6289L27.5007 67.7692L22.2169 62.4813L24.3551 60.3424C24.9408 59.7567 25.0383 58.8414 24.5886 58.1458C22.9949 55.6794 21.8743 52.9761 21.259 50.11C21.0846 49.3005 20.3692 48.7216 19.5404 48.7216H16.5212L16.5253 41.2461H19.5404C20.3692 41.2461 21.0846 40.668 21.259 39.8577C21.8743 36.9923 22.9949 34.289 24.5886 31.8226C25.0383 31.127 24.9408 30.2117 24.3551 29.626L22.2307 27.5008L27.5185 22.2171L29.6409 24.3402C30.2273 24.9259 31.1419 25.0227 31.8382 24.5737C34.3039 22.98 37.0073 21.8594 39.8733 21.2441C40.6829 21.0697 41.2617 20.3535 41.2617 19.5255V16.5234H48.7372V19.5248C48.7372 20.3535 49.3154 21.0697 50.1256 21.2434C52.991 21.8594 55.695 22.9793 58.1607 24.573C58.8563 25.0227 59.7716 24.9259 60.3573 24.3395L62.4804 22.2171L67.7683 27.5008L65.6438 29.6253C65.0574 30.2117 64.9606 31.127 65.4104 31.8226C67.0041 34.289 68.124 36.9923 68.7399 39.8577C68.9136 40.668 69.6298 41.2461 70.4586 41.2461H73.4791V48.7216H70.4586C69.6298 48.7216 68.9143 49.3005 68.7399 50.11C68.1247 52.9754 67.0041 55.6794 65.4104 58.1451C64.9606 58.8414 65.0581 59.7567 65.6438 60.3424L67.782 62.4806L62.4983 67.7685L60.358 65.6289C59.7716 65.0425 58.8563 64.9457 58.1607 65.3954C55.6943 66.9891 52.991 68.1091 50.1256 68.725C49.3154 68.8994 48.7372 69.6149 48.7372 70.4436V73.4766H41.2617V70.4436C41.2617 69.6156 40.6829 68.8994 39.8733 68.725C37.0079 68.1097 34.3046 66.9891 31.8382 65.3954Z" fill="#DF2D2D"/>
<path d="M59.5248 45C59.5248 36.991 53.0092 30.4754 45.0002 30.4754C36.9912 30.4754 30.4756 36.991 30.4756 45C30.4756 53.009 36.9912 59.5246 45.0002 59.5246C53.0092 59.5246 59.5248 53.009 59.5248 45ZM33.9912 45C33.9912 38.9294 38.9296 33.991 45.0002 33.991C51.0708 33.991 56.0092 38.9301 56.0092 45C56.0092 51.0699 51.0708 56.009 45.0002 56.009C38.9296 56.009 33.9912 51.0706 33.9912 45Z" fill="#DF2D2D"/>
<path d="M45 40C43.6855 40 42.3945 40.5352 41.4648 41.4648C40.5352 42.3945 40 43.6855 40 45C40 46.3203 40.5352 47.6055 41.4648 48.5352C42.3945 49.4648 43.6855 50 45 50C46.3145 50 47.6055 49.4648 48.5352 48.5352C49.4648 47.6055 50 46.3145 50 45C50 43.6855 49.4648 42.3945 48.5352 41.4648C47.6055 40.5352 46.3145 40 45 40Z" fill="#F5CB35"/>
<path d="M61.1855 6.6481C61.6483 6.6481 62.1015 6.45996 62.4284 6.13312C62.7552 5.80421 62.9434 5.35103 62.9434 4.88823C62.9434 4.42818 62.7559 3.9743 62.4284 3.6454C62.1015 3.31856 61.6483 3.13042 61.1855 3.13042C60.7214 3.13042 60.2702 3.31856 59.9434 3.6454C59.6159 3.9743 59.4277 4.42612 59.4277 4.88823C59.4277 5.3524 59.6159 5.80421 59.9434 6.13312C60.2702 6.45996 60.7214 6.6481 61.1855 6.6481Z" fill="#F5CB35"/>
<path d="M28.8911 83.3835C28.429 83.3835 27.9751 83.5716 27.6483 83.8985C27.3214 84.2253 27.1333 84.6792 27.1333 85.1413C27.1333 85.6055 27.3214 86.0573 27.6483 86.3841C27.9751 86.711 28.429 86.8991 28.8911 86.8991C29.3532 86.8991 29.8071 86.711 30.1339 86.3841C30.4608 86.0573 30.6489 85.6034 30.6489 85.1413C30.6489 84.6792 30.4608 84.2253 30.1339 83.8985C29.8071 83.5716 29.3532 83.3835 28.8911 83.3835Z" fill="#F5CB35"/>
</g>
<defs>
<clipPath id="clip0_2_502">
<rect width="90" height="90" fill="white"/>
</clipPath>
</defs>
</svg>
