<svg width="90" height="90" viewBox="0 0 90 90" fill="none" xmlns="http://www.w3.org/2000/svg">
<g clip-path="url(#clip0_2_481)">
<path d="M85.5 0H4.5C2.01472 0 0 2.01472 0 4.5V64.5C0 66.9853 2.01472 69 4.5 69H14.268C19.2068 81.6635 31.4076 90.001 45 90.001C58.5924 90.001 70.7932 81.6635 75.732 69H85.5C87.9853 69 90 66.9853 90 64.5V4.5C90 2.01472 87.9853 0 85.5 0ZM4.5 3H85.5C86.3284 3 87 3.67157 87 4.5V12H3V4.5C3 3.67157 3.67157 3 4.5 3ZM27.0405 58.5C27.1211 62.9197 27.7171 67.3149 28.8165 71.5965C25.8001 72.012 22.8063 72.5782 19.8465 73.293C16.9746 68.8714 15.3285 63.7664 15.0765 58.5H27.0405ZM46.5 43.479C50.484 43.431 54.3885 43.2015 58.143 42.786C59.2596 46.9352 59.87 51.2042 59.961 55.5H46.5V43.479ZM46.5 40.479V27.1575C50.8695 28.0725 54.75 32.937 57.2115 39.8655C53.751 40.2285 50.163 40.434 46.5 40.479ZM43.5 27.1575V40.479C39.837 40.434 36.249 40.2285 32.7885 39.8655C35.25 32.937 39.1305 28.0725 43.5 27.1575ZM43.5 43.479V55.5H30.039C30.13 51.2042 30.7404 46.9352 31.857 42.786C35.6115 43.2 39.516 43.431 43.5 43.479ZM30.039 58.5H43.5V70.521C39.516 70.569 35.6115 70.7985 31.857 71.214C30.7404 67.0648 30.13 62.7958 30.039 58.5ZM43.5 73.521V86.85C39.1305 85.935 35.25 81.0705 32.7885 74.142C36.249 73.7715 39.837 73.566 43.5 73.521ZM46.5 86.85V73.521C50.163 73.566 53.751 73.7715 57.2115 74.1345C54.75 81.063 50.8695 85.9275 46.5 86.85ZM46.5 70.5285V58.5H59.961C59.87 62.7958 59.2596 67.0648 58.143 71.214C54.3885 70.8 50.484 70.569 46.5 70.521V70.5285ZM62.9595 58.5H74.9235C74.6715 63.7664 73.0254 68.8714 70.1535 73.293C67.1937 72.5782 64.1999 72.012 61.1835 71.5965C62.2829 67.3149 62.8789 62.9197 62.9595 58.5ZM62.9595 55.5C62.8789 51.0803 62.2829 46.6851 61.1835 42.4035C64.1999 41.988 67.1937 41.4218 70.1535 40.707C73.0254 45.1286 74.6715 50.2336 74.9235 55.5H62.9595ZM60.3165 39.4935C59.0579 35.3989 56.9357 31.622 54.093 28.4175C59.6484 30.1967 64.5669 33.5524 68.25 38.076C65.7285 38.649 63.072 39.1215 60.3165 39.4935ZM29.6835 39.4935C26.928 39.1215 24.2715 38.649 21.7485 38.076C25.432 33.5521 30.351 30.1965 35.907 28.4175C33.0643 31.622 30.9421 35.3989 29.6835 39.4935ZM19.8465 40.707C22.8063 41.4218 25.8001 41.988 28.8165 42.4035C27.7171 46.6851 27.1211 51.0803 27.0405 55.5H15.0765C15.3285 50.2336 16.9746 45.1286 19.8465 40.707ZM21.75 75.924C24.273 75.351 26.9295 74.874 29.685 74.5065C30.9436 78.6011 33.0658 82.378 35.9085 85.5825C30.3525 83.8035 25.4335 80.4479 21.75 75.924ZM54.0945 85.5825C56.9372 82.378 59.0594 78.6011 60.318 74.5065C63.0735 74.8785 65.73 75.351 68.253 75.924C64.5691 80.4481 59.6495 83.8038 54.093 85.5825H54.0945ZM85.5 66H76.7415C80.5699 52.5375 75.4894 38.1243 64.0653 30.0382C52.6412 21.952 37.3588 21.952 25.9347 30.0382C14.5106 38.1243 9.4301 52.5375 13.2585 66H4.5C3.67157 66 3 65.3284 3 64.5V15H87V64.5C87 65.3284 86.3284 66 85.5 66Z" fill="#DF2D2D"/>
<path d="M7.5 9C8.32843 9 9 8.32843 9 7.5C9 6.67157 8.32843 6 7.5 6C6.67157 6 6 6.67157 6 7.5C6 8.32843 6.67157 9 7.5 9Z" fill="#F5CB35"/>
<path d="M13.5 9C14.3284 9 15 8.32843 15 7.5C15 6.67157 14.3284 6 13.5 6C12.6716 6 12 6.67157 12 7.5C12 8.32843 12.6716 9 13.5 9Z" fill="#F5CB35"/>
<path d="M19.5 9C20.3284 9 21 8.32843 21 7.5C21 6.67157 20.3284 6 19.5 6C18.6716 6 18 6.67157 18 7.5C18 8.32843 18.6716 9 19.5 9Z" fill="#F5CB35"/>
<path d="M40.5 9H49.5C50.3284 9 51 8.32843 51 7.5C51 6.67157 50.3284 6 49.5 6H40.5C39.6716 6 39 6.67157 39 7.5C39 8.32843 39.6716 9 40.5 9Z" fill="#F5CB35"/>
<path d="M66 9H82.5C83.3284 9 84 8.32843 84 7.5C84 6.67157 83.3284 6 82.5 6H66C65.1716 6 64.5 6.67157 64.5 7.5C64.5 8.32843 65.1716 9 66 9Z" fill="#F5CB35"/>
<path d="M7.5 22.5H10.5C11.3284 22.5 12 21.8284 12 21C12 20.1716 11.3284 19.5 10.5 19.5H7.5C6.67157 19.5 6 20.1716 6 21C6 21.8284 6.67157 22.5 7.5 22.5Z" fill="#F5CB35"/>
<path d="M10.5 31.5H7.5C6.67157 31.5 6 32.1716 6 33C6 33.8284 6.67157 34.5 7.5 34.5H10.5C11.3284 34.5 12 33.8284 12 33C12 32.1716 11.3284 31.5 10.5 31.5Z" fill="#F5CB35"/>
<path d="M30 19.5H16.5C15.6716 19.5 15 20.1716 15 21C15 21.8284 15.6716 22.5 16.5 22.5H30C30.8284 22.5 31.5 21.8284 31.5 21C31.5 20.1716 30.8284 19.5 30 19.5Z" fill="#F5CB35"/>
<path d="M19.5 25.5H7.5C6.67157 25.5 6 26.1716 6 27C6 27.8284 6.67157 28.5 7.5 28.5H19.5C20.3284 28.5 21 27.8284 21 27C21 26.1716 20.3284 25.5 19.5 25.5Z" fill="#F5CB35"/>
</g>
<defs>
<clipPath id="clip0_2_481">
<rect width="90" height="90" fill="white"/>
</clipPath>
</defs>
</svg>
