<svg width="90" height="90" viewBox="0 0 90 90" fill="none" xmlns="http://www.w3.org/2000/svg">
<g clip-path="url(#clip0_2_518)">
<path d="M86.25 41.5875V16.875C86.25 13.394 84.8672 10.0556 82.4058 7.59422C79.9444 5.13281 76.606 3.75 73.125 3.75H9.375C6.8886 3.75 4.50403 4.73772 2.74587 6.49587C0.98772 8.25403 0 10.6386 0 13.125L0 73.125C0 76.606 1.38281 79.9444 3.84422 82.4058C6.30564 84.8672 9.64403 86.25 13.125 86.25H73.125C76.606 86.25 79.9444 84.8672 82.4058 82.4058C84.8672 79.9444 86.25 76.606 86.25 73.125V63.4125C87.3441 63.0257 88.2919 62.3099 88.9632 61.3633C89.6346 60.4166 89.9967 59.2855 90 58.125V46.875C89.9967 45.7145 89.6346 44.5834 88.9632 43.6368C88.2919 42.6901 87.3441 41.9743 86.25 41.5875ZM9.375 7.5H73.125C75.6114 7.5 77.996 8.48772 79.7541 10.2459C81.5123 12.004 82.5 14.3886 82.5 16.875V22.7063C81.2794 21.456 79.8214 20.462 78.2115 19.7826C76.6016 19.1033 74.8723 18.7522 73.125 18.75H9.375C7.88316 18.75 6.45242 18.1574 5.39752 17.1025C4.34263 16.0476 3.75 14.6168 3.75 13.125C3.75 11.6332 4.34263 10.2024 5.39752 9.14753C6.45242 8.09263 7.88316 7.5 9.375 7.5ZM73.125 82.5H13.125C10.6386 82.5 8.25403 81.5123 6.49587 79.7541C4.73772 77.996 3.75 75.6114 3.75 73.125V20.625C7.14375 23.1938 3.6375 22.5 73.125 22.5C75.6114 22.5 77.996 23.4877 79.7541 25.2459C81.5123 27.004 82.5 29.3886 82.5 31.875V41.25H71.25C68.2663 41.25 65.4048 42.4353 63.295 44.5451C61.1853 46.6548 60 49.5163 60 52.5C60 55.4837 61.1853 58.3452 63.295 60.455C65.4048 62.5647 68.2663 63.75 71.25 63.75H82.5V73.125C82.5 75.6114 81.5123 77.996 79.7541 79.7541C77.996 81.5123 75.6114 82.5 73.125 82.5ZM86.25 58.125C86.25 58.6223 86.0525 59.0992 85.7008 59.4508C85.3492 59.8025 84.8723 60 84.375 60H71.25C69.2609 60 67.3532 59.2098 65.9467 57.8033C64.5402 56.3968 63.75 54.4891 63.75 52.5C63.75 50.5109 64.5402 48.6032 65.9467 47.1967C67.3532 45.7902 69.2609 45 71.25 45H84.375C84.8723 45 85.3492 45.1976 85.7008 45.5492C86.0525 45.9008 86.25 46.3777 86.25 46.875V58.125Z" fill="#DF2D2D"/>
<path d="M15 15H71.25C71.7473 15 72.2242 14.8025 72.5758 14.4508C72.9275 14.0992 73.125 13.6223 73.125 13.125C73.125 12.6277 72.9275 12.1508 72.5758 11.7992C72.2242 11.4475 71.7473 11.25 71.25 11.25H15C14.5027 11.25 14.0258 11.4475 13.6742 11.7992C13.3225 12.1508 13.125 12.6277 13.125 13.125C13.125 13.6223 13.3225 14.0992 13.6742 14.4508C14.0258 14.8025 14.5027 15 15 15Z" fill="#F5CB35"/>
<circle cx="72" cy="52" r="4" fill="#F5CB35"/>
</g>
<defs>
<clipPath id="clip0_2_518">
<rect width="90" height="90" fill="white"/>
</clipPath>
</defs>
</svg>
