<?xml version="1.0" encoding="utf-8"?><svg xmlns="http://www.w3.org/2000/svg" xmlns:xlink="http://www.w3.org/1999/xlink"><symbol viewBox="0 0 22 24" id="basket" xmlns="http://www.w3.org/2000/svg"><g clip-path="url(#aa)"><path d="M10.363 18.443a2.046 2.046 0 00-2.045 2.042 2.046 2.046 0 004.09 0 2.046 2.046 0 00-2.045-2.042zm6.134 0a2.046 2.046 0 00-2.045 2.042 2.046 2.046 0 004.089 0 2.046 2.046 0 00-2.044-2.042zm3.978-8.199L7.413 6.891a.614.614 0 00-.75.73L8.67 16.4h-.786L5.482 5.895a.613.613 0 00-.474-.464l-4.27-.882A.614.614 0 00.489 5.75l3.885.802L6.797 17.15a.613.613 0 00.598.477h12.07a.615.615 0 00.607-.53l.858-6.175a.613.613 0 00-.455-.678zm-8.14 3.91a.613.613 0 01-1.227 0v-2.696a.613.613 0 011.227 0v2.696zm2.625 0a.613.613 0 01-1.227 0v-1.88a.613.613 0 011.227 0v1.88zm2.625 0a.613.613 0 01-1.227 0v-1.226a.613.613 0 011.227 0v1.226z"/></g><path fill-rule="evenodd" clip-rule="evenodd" d="M16.268 4.568a2.996 2.996 0 00-1.693-.523c-.627 0-1.21.193-1.693.523-.28-.843-.492-1.752-.492-2.383C12.39.98 13.37 0 14.575 0s2.185.98 2.185 2.185c0 .631-.212 1.54-.492 2.383zm-4.722 2.274l.024.006v-.011l-.024.005zm4.972 1.217c-1.333-.33-2.766-.681-4.129-1.013a2.185 2.185 0 114.129 1.013zm4.436 1.103c-.866-.217-2.155-.538-3.618-.9a2.995 2.995 0 00.243-1.425c.87.18 1.762.45 2.308.765.596.344.969.928 1.067 1.56zM9.869 6.439c-.36-.086-.706-.167-1.03-.243a2.19 2.19 0 01-.376-2.667 2.188 2.188 0 013.147-.7c.098.738.338 1.599.61 2.353a3.01 3.01 0 00-.449.774c-.628.113-1.305.278-1.902.483zm10.124.075a3.43 3.43 0 01-.217.114c-.696-.295-1.587-.526-2.397-.672a3.01 3.01 0 00-.449-.774c.262-.727.494-1.553.599-2.273.095-.067.189-.128.278-.18a2.188 2.188 0 012.986.8 2.188 2.188 0 01-.8 2.985z"/><defs><clipPath id="aa"><path transform="translate(0 3.064)" d="M0 0h20.936v20.936H0z"/></clipPath></defs></symbol><symbol viewBox="0 0 344.96 344.96" id="check" xmlns="http://www.w3.org/2000/svg"><g data-name="Слой 2"><path class="bcls-1" d="M321.85 86.24l-40-23.11-23.1-40H212.5L172.48 0l-40 23.11H86.24l-23.11 40-40 23.1v46.21L0 172.48l23.11 40v46.21l40 23.11 23.11 40h46.21l40 23.1 40-23.11h46.21l23.11-40 40-23.11V212.5l23.11-40-23.11-40V86.24zM156.91 243.07a16.79 16.79 0 01-23.34 0l-50.45-50.44a16.19 16.19 0 010-22.89l13.35-13.35a16.19 16.19 0 0122.89 0l25.87 25.87 80.34-80.35a16.19 16.19 0 0122.89 0l13.35 13.35a16.19 16.19 0 010 22.89z" data-name="Capa 1"/></g></symbol><symbol viewBox="0 0 24 24" id="fb" xmlns="http://www.w3.org/2000/svg"><path d="M13.397 20.997v-8.196h2.765l.411-3.209h-3.176V7.548c0-.926.258-1.56 1.587-1.56h1.684v-2.86A22.108 22.108 0 0014.201 3c-2.444 0-4.122 1.492-4.122 4.231v2.355H7.332v3.21h2.753v8.201h3.312z"/></symbol><symbol viewBox="0 0 24 24" id="info" xmlns="http://www.w3.org/2000/svg"><g clip-path="url(#da)"><path d="M10.542 9.903c0-1.187.98-2.15 2.188-2.15 1.208 0 2.187.963 2.187 2.15v11.613c0 1.188-.98 2.15-2.188 2.15-1.208 0-2.187-.962-2.187-2.15V9.903zm0-7.419c0-1.188.98-2.15 2.188-2.15 1.208 0 2.187.962 2.187 2.15s-.98 2.15-2.188 2.15c-1.208 0-2.187-.962-2.187-2.15z"/></g><defs><clipPath id="da"><path transform="translate(.333 .333)" d="M0 0h23.333v23.333H0z"/></clipPath></defs></symbol><symbol viewBox="0 0 24 24" id="instagram" xmlns="http://www.w3.org/2000/svg"><path d="M11.999 7.377a4.624 4.624 0 100 9.248 4.624 4.624 0 000-9.248zm0 7.627a3.004 3.004 0 110-6.008 3.004 3.004 0 010 6.008zm4.807-6.719a1.078 1.078 0 100-2.156 1.078 1.078 0 000 2.156z"/><path d="M20.533 6.11A4.605 4.605 0 0017.9 3.48a6.607 6.607 0 00-2.186-.42c-.963-.042-1.268-.054-3.71-.054s-2.755 0-3.71.054a6.554 6.554 0 00-2.184.42 4.6 4.6 0 00-2.633 2.63 6.585 6.585 0 00-.419 2.186c-.043.962-.056 1.267-.056 3.71 0 2.442 0 2.753.056 3.71.015.748.156 1.486.419 2.187a4.61 4.61 0 002.634 2.632 6.583 6.583 0 002.185.45c.963.042 1.268.055 3.71.055s2.755 0 3.71-.055a6.616 6.616 0 002.186-.42 4.613 4.613 0 002.633-2.632c.263-.7.404-1.438.419-2.186.043-.962.056-1.267.056-3.71s0-2.753-.056-3.71a6.583 6.583 0 00-.421-2.217zm-1.218 9.533a5.046 5.046 0 01-.311 1.688 2.987 2.987 0 01-1.712 1.71c-.535.2-1.1.305-1.67.312-.95.044-1.218.055-3.654.055-2.438 0-2.687 0-3.655-.055a4.961 4.961 0 01-1.67-.311 2.984 2.984 0 01-1.718-1.711 5.08 5.08 0 01-.311-1.67c-.043-.95-.053-1.217-.053-3.653 0-2.437 0-2.686.053-3.655a5.038 5.038 0 01.311-1.687c.305-.79.93-1.41 1.719-1.712a5.01 5.01 0 011.669-.311c.95-.043 1.218-.055 3.655-.055s2.687 0 3.654.055a4.96 4.96 0 011.67.31 2.99 2.99 0 011.712 1.713 5.06 5.06 0 01.311 1.669c.043.95.054 1.218.054 3.655 0 2.436 0 2.698-.043 3.654h-.011v-.001z"/></symbol><symbol viewBox="0 0 20 20" id="telegram" xmlns="http://www.w3.org/2000/svg"><g clip-path="url(#fa)"><path d="M7.846 12.413l-.33 4.654c.475 0 .68-.202.926-.447l2.22-2.123 4.597 3.368c.842.47 1.438.224 1.666-.776l3.018-14.146c.268-1.241-.452-1.732-1.272-1.425L.93 8.312c-1.21.47-1.193 1.145-.206 1.452l4.535 1.412L15.794 4.58c.495-.329.947-.144.574.18l-8.522 7.654z"/></g><defs><clipPath id="fa"><path d="M0 0h20v20H0z"/></clipPath></defs></symbol><symbol viewBox="0 0 20 20" id="viber" xmlns="http://www.w3.org/2000/svg"><path d="M16.05 8.332c.02-2.35-1.983-4.504-4.463-4.804a1.765 1.765 0 01-.16-.026 2.281 2.281 0 00-.378-.041c-.507 0-.642.357-.678.57-.036.206 0 .382.098.517.171.228.466.269.705.3.067.01.134.02.191.031 2.226.497 2.976 1.279 3.344 3.489.01.052.015.119.015.191.016.264.052.813.642.813a1.7 1.7 0 00.155-.01c.549-.083.533-.585.523-.829 0-.067-.005-.134 0-.176.005-.005.005-.015.005-.025z"/><path d="M10.91 2.669l.18.015c3.655.565 5.337 2.299 5.808 5.984.01.062.01.14.01.222.006.29.016.886.658.901h.02c.202 0 .363-.062.477-.181.202-.207.186-.523.176-.771-.006-.062-.006-.12-.006-.171.047-3.773-3.219-7.19-6.987-7.319h-.093c-.037 0-.083-.005-.135-.005a2.154 2.154 0 00-.197-.01c-.6 0-.714.424-.73.683-.025.59.544.631.819.652zm5.807 10.766a4.011 4.011 0 01-.233-.181c-.398-.32-.823-.616-1.237-.906l-.254-.176c-.527-.367-.998-.549-1.449-.549-.6 0-1.128.332-1.563.99-.191.289-.424.434-.714.434a1.38 1.38 0 01-.575-.145c-1.697-.771-2.914-1.951-3.607-3.514-.337-.756-.228-1.248.362-1.646.336-.228.957-.653.916-1.465-.052-.922-2.08-3.69-2.94-4.006a1.671 1.671 0 00-1.133-.006c-.984.332-1.693.911-2.045 1.683-.342.74-.326 1.614.047 2.52 1.066 2.624 2.572 4.907 4.461 6.796 1.853 1.848 4.13 3.36 6.77 4.498.239.104.487.16.668.197l.155.036c.021.005.042.01.068.01h.02c1.243 0 2.733-1.133 3.189-2.427.42-1.134-.316-1.693-.906-2.143zm-5.259-7.769c-.212.005-.657.015-.812.465-.073.213-.063.394.025.544.13.223.384.29.617.326.833.135 1.262.595 1.345 1.45.042.398.31.677.652.677.026 0 .052 0 .078-.005.414-.052.616-.352.595-.906.005-.574-.295-1.226-.807-1.75-.513-.522-1.128-.817-1.693-.801z"/></symbol><symbol viewBox="0 0 24 24" id="vk" xmlns="http://www.w3.org/2000/svg"><path d="M21.579 6.855c.14-.465 0-.806-.662-.806h-2.193c-.558 0-.813.295-.953.619 0 0-1.115 2.719-2.695 4.482-.51.513-.743.675-1.021.675-.139 0-.341-.162-.341-.627V6.855c0-.558-.161-.806-.626-.806H9.642c-.348 0-.558.258-.558.504 0 .528.79.65.871 2.138v3.228c0 .707-.127.836-.407.836-.743 0-2.551-2.73-3.624-5.853-.209-.607-.42-.852-.98-.852H2.752c-.627 0-.752.295-.752.619 0 .582.743 3.462 3.461 7.27 1.812 2.602 4.363 4.012 6.687 4.012 1.393 0 1.565-.313 1.565-.853v-1.966c0-.626.133-.752.574-.752.324 0 .882.164 2.183 1.417 1.486 1.486 1.732 2.153 2.567 2.153h2.192c.626 0 .939-.313.759-.931-.197-.615-.907-1.51-1.849-2.57-.512-.603-1.277-1.253-1.51-1.578-.325-.42-.231-.604 0-.976.001 0 2.672-3.761 2.95-5.04z"/></symbol><symbol viewBox="0 0 20 20" id="whatsapp" xmlns="http://www.w3.org/2000/svg"><path d="M14.653 11.011c-.035-.018-1.349-.663-1.579-.747a.898.898 0 00-.305-.067c-.177 0-.327.089-.442.261-.133.195-.526.66-.65.796-.018.018-.04.04-.053.04-.014 0-.217-.084-.274-.11-1.407-.61-2.477-2.083-2.623-2.331-.022-.035-.022-.053-.022-.053.004-.018.053-.066.075-.093.07-.07.15-.164.226-.252.035-.044.07-.084.106-.124a1.29 1.29 0 00.212-.34l.03-.058a.603.603 0 00-.017-.575c-.03-.062-.584-1.397-.646-1.539-.141-.34-.327-.495-.588-.495l-.101.004c-.124.005-.796.093-1.093.279-.314.199-.849.831-.849 1.941 0 1 .637 1.946.907 2.304.009.01.017.027.035.054 1.044 1.525 2.348 2.657 3.666 3.184 1.27.508 1.871.566 2.216.566.146 0 .261-.013.358-.022l.067-.005c.438-.04 1.402-.54 1.623-1.15.172-.482.216-1.003.101-1.194-.075-.128-.212-.194-.38-.274z"/><path d="M10.491.667c-4.873 0-8.84 3.936-8.84 8.774 0 1.566.42 3.096 1.211 4.436l-1.517 4.48a.236.236 0 00.054.239.241.241 0 00.238.062l4.67-1.486a8.928 8.928 0 004.184 1.043c4.874 0 8.841-3.936 8.841-8.774 0-4.838-3.967-8.774-8.84-8.774zm0 15.722a7 7 0 01-3.852-1.15.23.23 0 00-.128-.04.389.389 0 00-.07.009l-2.34.743.756-2.229a.229.229 0 00-.031-.212 6.853 6.853 0 01-1.331-4.073c0-3.83 3.14-6.948 7-6.948 3.862 0 7.002 3.118 7.002 6.948-.005 3.834-3.145 6.952-7.006 6.952z"/></symbol></svg>