<svg width="16" height="16" viewBox="0 0 16 16" fill="none" xmlns="http://www.w3.org/2000/svg">
<path d="M5.01093 1.33373C4.81386 1.32939 4.62034 1.38652 4.45728 1.49725C4.29421 1.60798 4.16969 1.76685 4.10104 1.95162C4.03239 2.13639 4.02302 2.33793 4.07422 2.52827C4.12542 2.71862 4.23466 2.8882 4.38674 3.01359L10.1896 7.98483L4.38674 12.9543C4.28154 13.0316 4.19343 13.1298 4.12794 13.2428C4.06245 13.3557 4.02099 13.481 4.00615 13.6107C3.99131 13.7404 4.00341 13.8718 4.0417 13.9966C4.07998 14.1214 4.14363 14.237 4.22865 14.3361C4.31367 14.4352 4.41824 14.5156 4.5358 14.5724C4.65336 14.6292 4.78138 14.6611 4.91184 14.6661C5.04231 14.6712 5.17241 14.6493 5.294 14.6017C5.41558 14.5541 5.52604 14.482 5.61844 14.3897L12.2622 8.70532C12.3665 8.61628 12.4503 8.50577 12.5078 8.38123C12.5652 8.25668 12.595 8.12111 12.595 7.98395C12.595 7.8468 12.5652 7.71123 12.5078 7.58668C12.4503 7.46214 12.3665 7.35152 12.2622 7.26248L5.61844 1.57261C5.45061 1.42354 5.23534 1.33879 5.01093 1.33351L5.01093 1.33373Z" fill="#1E1E1E"/>
</svg>
