<svg width="24" height="24" viewBox="0 0 24 24" fill="none" xmlns="http://www.w3.org/2000/svg">
<g clip-path="url(#clip0_2_9)">
<path d="M10.542 9.90339C10.542 8.71565 11.5213 7.75285 12.7295 7.75285C13.9376 7.75285 14.917 8.71565 14.917 9.90339V21.5163C14.917 22.704 13.9376 23.6668 12.7295 23.6668C11.5213 23.6668 10.542 22.704 10.542 21.5163V9.90339Z" fill="#1E1E1E"/>
<path d="M10.542 2.48403C10.542 1.29629 11.5213 0.333496 12.7295 0.333496C13.9376 0.333496 14.917 1.29629 14.917 2.48403C14.917 3.67178 13.9376 4.63457 12.7295 4.63457C11.5213 4.63457 10.542 3.67178 10.542 2.48403Z" fill="#1E1E1E"/>
</g>
<defs>
<clipPath id="clip0_2_9">
<rect width="23.3333" height="23.3333" fill="white" transform="translate(0.333496 0.333496)"/>
</clipPath>
</defs>
</svg>
