<svg width="20" height="20" viewBox="0 0 20 20" fill="none" xmlns="http://www.w3.org/2000/svg">
<path d="M14.6532 11.0112C14.6178 10.9935 13.3043 10.3478 13.0743 10.2638C12.977 10.2284 12.8753 10.1974 12.7691 10.1974C12.5922 10.1974 12.4419 10.2859 12.3269 10.4584C12.1942 10.653 11.8006 11.1173 11.6768 11.2544C11.6591 11.2721 11.637 11.2942 11.6237 11.2942C11.6104 11.2942 11.407 11.2102 11.3495 11.1837C9.9431 10.5734 8.87283 9.10064 8.72689 8.85297C8.70477 8.81759 8.70477 8.7999 8.70477 8.7999C8.7092 8.78221 8.75784 8.73356 8.77996 8.70702C8.85072 8.63626 8.93033 8.54339 9.00551 8.45493C9.04089 8.41071 9.07627 8.37091 9.11165 8.3311C9.22222 8.20285 9.27087 8.10555 9.32394 7.99056L9.35489 7.93307C9.492 7.65887 9.37701 7.43331 9.3372 7.35813C9.30625 7.29621 8.75342 5.96059 8.6915 5.81906C8.54998 5.47852 8.36423 5.32373 8.1033 5.32373C8.08119 5.32373 8.1033 5.32373 8.00158 5.32815C7.87775 5.33258 7.20551 5.42103 6.9092 5.60678C6.59519 5.80579 6.06006 6.43823 6.06006 7.5483C6.06006 8.54781 6.69691 9.49425 6.96669 9.85248C6.97554 9.86132 6.98438 9.87901 7.00207 9.90555C8.04581 11.4313 9.35047 12.5635 10.6684 13.0898C11.9377 13.5984 12.5392 13.6559 12.8841 13.6559C13.0301 13.6559 13.1451 13.6427 13.2424 13.6338L13.3087 13.6294C13.7465 13.5896 14.7107 13.0898 14.9318 12.4795C15.1043 11.9974 15.1485 11.4756 15.0335 11.2854C14.9583 11.1571 14.8212 11.0908 14.6532 11.0112Z" fill="#40A86F"/>
<path d="M10.4914 0.666504C5.61767 0.666504 1.6506 4.60262 1.6506 9.44095C1.6506 11.0066 2.07074 12.5368 2.86239 13.8768L1.34544 18.3569C1.3189 18.441 1.33659 18.5338 1.39851 18.5957C1.44273 18.64 1.50465 18.6665 1.56657 18.6665C1.58868 18.6665 1.61522 18.6621 1.63733 18.6577L6.30759 17.1717C7.58572 17.8527 9.03191 18.2154 10.4914 18.2154C15.3651 18.2154 19.3321 14.2793 19.3321 9.44095C19.3321 4.60262 15.3651 0.666504 10.4914 0.666504ZM10.4914 16.3889C9.11594 16.3889 7.78474 15.9908 6.63929 15.239C6.59948 15.2125 6.55526 15.1992 6.51103 15.1992C6.48892 15.1992 6.46238 15.2036 6.44027 15.208L4.10072 15.951L4.85698 13.722C4.88352 13.6513 4.87025 13.5717 4.82602 13.5097C3.95477 12.3201 3.49482 10.9093 3.49482 9.43653C3.49482 5.60655 6.63487 2.48862 10.4958 2.48862C14.3567 2.48862 17.4968 5.60655 17.4968 9.43653C17.4923 13.2709 14.3523 16.3889 10.4914 16.3889Z" fill="#40A86F"/>
</svg>
